After a shocking photo of a young woman is found inside the twisted metal of a fatal car crash, veteran detective Emory Lloyd must risk everything to identify and find the woman before it's too late...
 
http://www.imdb.com/title/tt1230372/

Subs: Dutch, English.


Een jonge vrouw is ontvoerd, gemarteld en vastgebonden aan een boom in een geïsoleerd moeras in centraal Florida. De enige persoon die haar locatie weet is dood. De ervaren rechercheur Emory Lane wordt 's avonds laat gebeld als hij bij het bed van zijn zieke vrouw zit. Hij wordt opgeroepen om naar de plaats te komen van een gruwelijk auto ongeluk op een verlaten snelweg. In het wrak ontdekt hij een foto van een jonge vrouw die vastgebonden zit aan een boom. Hij moet alles in het werk stellen om de vrouw te identificeren en te vinden, voor het te laat is...
 
http://www.moviemeter.nl/film/66250

Subs: Engels, Nederlands.

General
Complete name                    : Endure-AC3-XviD-DVDRip 2010.avi
Format                           : AVI
Format/Info                      : Audio Video Interleave
File size                        : 1.28 GiB
Duration                         : 1h 31mn
Overall bit rate                 : 1 993 Kbps
Writing application              : VirtualDubMod 1.5.4.1 (build 2178/release)
Writing library                  : VirtualDubMod build 2178/release
Source                           : Endure (2010) COMPLETE.R1.NTSC.DVDR-IGUANA

Video
ID                               : 0
Format                           : MPEG-4 Visual
Format profile                   : Simple@L3
Format settings, BVOP            : No
Format settings, QPel            : No
Format settings, GMC             : No warppoints
Format settings, Matrix          : Default (H.263)
Codec ID                         : XVID
Codec ID/Hint                    : XviD
Duration                         : 1h 31mn
Bit rate                         : 1 663 Kbps
Width                            : 720 pixels
Height                           : 400 pixels
Display aspect ratio             : 16:9
Frame rate                       : 23.976 fps
Resolution                       : 8 bits
Colorimetry                      : 4:2:0
Scan type                        : Progressive
Bits/(Pixel*Frame)               : 0.241
Stream size                      : 1.07 GiB (83%)
Writing library                  : XviD 1.1.2 (UTC 2006-11-01)

Audio
ID                               : 1
Format                           : AC-3
Format/Info                      : Audio Coding 3
Codec ID                         : 2000
Duration                         : 1h 31mn
Bit rate mode                    : Constant
Bit rate                         : 320 Kbps
Channel(s)                       : 6 channels
Channel positions                : Front: L C R, Surround: L R, LFE
Sampling rate                    : 48.0 KHz
Stream size                      : 210 MiB (16%)
Alignment                        : Split accross interleaves
Interleave, duration             : 42 ms (1.00 video frame)
Interleave, preload duration     : 500 ms

Enjoy...

TBS.

Thanks to Simply ReleaseS Toppers